<svg version="1.1" id="Layer_1" xmlns="http://www.w3.org/2000/svg" xmlns:xlink="http://www.w3.org/1999/xlink" x="0px" y="0px"
	 width="100%" viewBox="0 0 1024 1024" enable-background="new 0 0 1024 1024" xml:space="preserve">
<path fill="#000000" opacity="1.000000" stroke="none" 
	d="
M708.515381,389.585449 
	C710.177979,394.001221 711.673767,398.065308 713.249939,402.097992 
	C714.187561,404.496918 715.668152,405.658142 718.602112,405.357910 
	C733.831238,403.799713 747.091614,415.289642 748.054993,430.652557 
	C748.966858,445.193756 736.020935,458.647797 720.659363,458.479675 
	C716.533508,458.434540 714.807312,459.701294 713.355591,463.288483 
	C704.608582,484.900848 695.719788,506.456665 686.716248,527.963501 
	C685.222595,531.531433 686.118774,533.509277 688.943420,535.968018 
	C703.114441,548.303589 699.969299,568.404541 682.893860,575.846436 
	C674.599548,579.461304 664.552185,577.505310 657.582092,570.457581 
	C655.138794,567.987061 653.632446,567.658630 650.562927,569.700134 
	C640.303223,576.523682 629.760681,582.925049 619.268066,589.393188 
	C616.741455,590.950684 615.715027,592.610535 616.062744,595.855652 
	C617.048889,605.058777 611.597046,613.806519 603.436707,617.088928 
	C595.228882,620.390442 585.837646,617.699158 579.926758,609.833740 
	C577.891357,607.125427 576.256348,606.764771 573.306580,608.078552 
	C561.590942,613.296509 549.795776,618.337463 537.993408,623.357605 
	C535.342896,624.485046 534.316895,625.994812 534.522400,629.074219 
	C535.385986,642.015808 525.565063,652.424072 512.356995,652.918518 
	C500.564972,653.359924 489.651917,642.624390 489.744049,630.262085 
	C489.771332,626.601013 488.791290,624.331055 485.387482,622.863281 
	C473.612549,617.785767 461.882751,612.602295 450.171143,607.379944 
	C447.741608,606.296631 446.379547,606.925354 444.799805,609.046692 
	C438.599762,617.372437 430.187073,620.248779 421.736694,617.263306 
	C413.324951,614.291504 408.434235,606.701416 408.764496,596.398560 
	C408.874115,592.979797 407.877380,590.875366 404.949493,589.062317 
	C394.469543,582.572876 384.084778,575.925232 373.778748,569.162598 
	C371.229248,567.489685 369.721924,568.087585 367.839935,570.088257 
	C361.278259,577.063599 353.083649,579.173584 344.095032,576.493958 
	C334.656982,573.680359 329.052124,566.890747 327.372772,557.173645 
	C325.838104,548.293457 329.140015,541.062866 336.136200,535.732544 
	C338.937225,533.598450 339.390472,531.942200 338.094849,528.704163 
	C329.246094,506.589111 320.279541,484.525848 310.917999,462.621185 
	C309.612335,459.566101 308.234985,458.355286 304.661499,458.657654 
	C290.148285,459.885620 276.520935,446.325775 276.899261,431.409668 
	C277.288666,416.057465 290.890778,403.408997 305.551575,405.252563 
	C309.440643,405.741577 310.562408,404.029663 311.645477,401.161926 
	C320.353546,378.104797 329.023804,355.032806 337.900360,332.040527 
	C339.313782,328.379333 337.290131,326.912323 335.067047,325.042480 
	C328.097656,319.180420 325.095947,311.783356 327.213104,302.781189 
	C329.397217,293.494202 335.472382,287.522644 344.540527,285.230438 
	C353.187683,283.044586 361.200073,285.100800 367.398041,291.799377 
	C369.847229,294.446381 371.615631,294.482758 374.572906,292.686951 
	C384.960510,286.379089 395.516571,280.347565 406.037659,274.261261 
	C408.460144,272.859863 409.348724,271.290070 408.798645,268.220642 
	C407.114227,258.821472 412.365234,249.757950 421.168060,245.975555 
	C429.074921,242.578125 438.827972,245.199753 444.420105,252.532074 
	C446.282623,254.974197 447.741638,256.082947 450.952179,254.586029 
	C462.274475,249.307022 473.730469,244.313492 485.161163,239.269272 
	C487.952789,238.037354 489.433899,236.703430 489.279053,233.003342 
	C488.731232,219.912552 498.185150,209.914597 510.693237,209.632706 
	C524.876526,209.313034 535.119568,218.516373 535.241943,232.098312 
	C535.273865,235.634949 536.370300,237.479553 539.574646,238.929398 
	C550.500000,243.872665 561.324585,249.043320 572.119385,254.268082 
	C575.427673,255.869293 577.588318,255.763718 580.090942,252.478180 
	C585.869446,244.891983 595.560486,242.590118 603.851624,246.166885 
	C612.022827,249.691895 617.283813,258.493164 615.983643,267.662292 
	C615.483887,271.186829 616.573181,272.821808 619.380859,274.358795 
	C630.193848,280.278137 640.980530,286.249878 651.664001,292.398529 
	C654.456726,294.005859 655.825317,292.475647 657.671021,290.947235 
	C672.526306,278.645294 692.762146,284.870483 697.566101,303.225525 
	C699.917053,312.208160 696.060547,319.311859 689.820068,325.118683 
	C686.612305,328.103577 685.946167,330.563171 687.535583,334.618134 
	C694.645325,352.755920 701.460754,371.009033 708.515381,389.585449 
M561.685059,474.138031 
	C558.004883,478.193481 554.164307,482.070099 548.844116,485.089813 
	C551.225586,486.289917 553.474792,487.229004 554.254333,489.159210 
	C555.871643,493.163818 559.192322,494.272339 562.815796,495.111481 
	C571.412964,497.102448 579.909363,499.460815 588.225586,502.403564 
	C591.073730,503.411499 592.738708,502.740692 594.449158,500.264771 
	C597.636414,495.651245 601.752930,491.847015 607.464966,490.840332 
	C610.831970,490.246979 612.192993,488.494324 613.169922,485.529785 
	C618.584351,469.099487 624.131531,452.712952 629.640564,436.313873 
	C630.281616,434.405731 630.635620,432.607697 629.994690,430.507874 
	C624.457825,412.367340 618.941895,394.223358 612.446411,376.392731 
	C611.567078,373.978912 610.331543,372.678009 607.578552,372.221161 
	C602.295227,371.344513 597.890015,368.521271 594.970520,364.010101 
	C593.356995,361.516876 591.769592,361.256927 589.170959,362.086182 
	C579.506592,365.170227 569.782104,368.065948 560.083740,371.043915 
	C558.488953,371.533661 556.738525,371.963074 555.966003,373.606873 
	C554.290161,377.172943 551.329407,379.049835 547.556396,380.230469 
	C550.213989,380.679413 551.801086,382.428192 553.524109,383.928558 
	C580.675354,407.571167 584.198975,444.221008 561.685059,474.138031 
M404.602448,399.033569 
	C401.447540,409.204071 398.310516,419.380157 395.120972,429.539764 
	C394.562775,431.317719 394.176300,432.988403 394.771454,434.883209 
	C400.154633,452.022095 405.488770,469.176453 410.798645,486.338257 
	C411.605682,488.946564 412.871002,490.427185 415.926849,490.829346 
	C421.390320,491.548401 426.212433,494.029327 429.016571,499.008972 
	C431.215637,502.914032 433.886810,503.136566 437.741791,501.787170 
	C443.545685,499.755585 449.434814,497.789124 455.444855,496.569092 
	C463.320068,494.970428 469.958893,491.849243 474.264435,484.806305 
	C435.708313,458.743896 441.493103,400.158386 476.246277,380.366516 
	C472.797913,379.510010 469.911835,378.065399 468.619629,374.527740 
	C468.111542,373.136658 466.782806,372.710083 465.496948,372.282013 
	C455.552643,368.971954 445.594055,365.702942 435.684418,362.291779 
	C433.283905,361.465424 431.665527,361.755951 430.181396,363.950897 
	C427.128021,368.466675 422.560760,370.988617 417.393799,371.994507 
	C414.231079,372.610199 412.943604,374.229584 412.055389,377.011841 
	C409.778534,384.143738 407.303528,391.212341 404.602448,399.033569 
M500.948547,486.627777 
	C509.227081,488.421936 517.499146,488.267761 525.660461,486.110321 
	C549.209167,479.885406 562.734009,463.867096 566.180420,440.529999 
	C569.425293,418.557312 561.375549,400.114929 542.430603,387.599121 
	C524.543091,375.781891 505.649170,374.716095 486.621368,384.778809 
	C468.150208,394.547150 458.391266,410.543549 457.463196,431.082184 
	C456.253418,457.854614 472.982819,478.845184 500.948547,486.627777 
M702.744202,410.617188 
	C707.949097,410.682465 707.393982,407.798523 706.063110,404.330872 
	C697.351257,381.631805 688.695862,358.911072 679.970459,336.217255 
	C679.239929,334.317291 679.185791,331.610504 676.306396,331.465637 
	C673.211670,331.310028 672.663757,333.941711 671.915833,336.106812 
	C667.348816,349.326874 662.891174,362.585114 658.249878,375.778809 
	C657.409973,378.166351 658.096069,379.415222 659.994934,380.743774 
	C674.054260,390.580688 688.061707,400.491699 702.744202,410.617188 
M606.347534,309.315002 
	C607.671265,314.977814 609.163574,320.608582 610.248718,326.316772 
	C610.801025,329.222198 612.007874,330.568878 615.011230,330.981781 
	C618.999939,331.530090 622.784485,332.989807 625.698181,335.955078 
	C627.815369,338.109711 629.656128,337.610504 631.813599,336.008423 
	C637.424072,331.842133 643.164368,327.850525 648.773743,323.682861 
	C650.153198,322.657959 652.090820,321.945129 652.248901,318.760162 
	C646.840698,317.842865 641.678467,318.259674 636.610718,320.579651 
	C633.612671,321.952148 631.034546,321.228546 629.076538,318.691254 
	C627.367615,316.476807 627.338074,313.981476 628.971252,311.734375 
	C630.994568,308.950592 633.888977,308.927155 636.556213,310.410095 
	C638.921387,311.725067 641.313416,311.806244 643.790894,311.653442 
	C646.195862,311.505096 649.417175,311.924042 649.534058,308.416504 
	C649.651001,304.905457 652.691956,300.840698 647.057068,298.113251 
	C637.632629,293.551514 628.269165,288.712158 619.464233,283.076965 
	C613.819702,279.464478 609.453796,278.591583 604.233215,283.328400 
	C602.445740,284.950165 601.254333,285.880859 601.905640,288.533386 
	C603.527771,295.140289 604.805969,301.831665 606.347534,309.315002 
M326.641541,384.999023 
	C324.091064,391.677856 321.497803,398.340912 319.022064,405.047363 
	C318.447571,406.603699 316.765961,408.302216 318.862946,409.959778 
	C320.848511,411.529175 322.603088,410.529449 324.304688,409.324036 
	C337.608826,399.899414 350.895508,390.449951 364.238068,381.080078 
	C366.339508,379.604340 366.939209,378.096802 365.991669,375.606842 
	C364.396576,371.415283 363.137329,367.096222 361.724518,362.834869 
	C358.638428,353.526245 355.573914,344.210205 352.426453,334.922302 
	C351.873291,333.290009 351.671143,331.160370 349.099701,331.216736 
	C346.786926,331.267487 346.132568,333.054749 345.358002,334.706665 
	C344.864227,335.759735 344.418304,336.839050 344.015564,337.930450 
	C338.315826,353.376068 332.627136,368.825714 326.641541,384.999023 
M387.177399,310.422852 
	C390.475067,309.044037 393.389954,309.284821 395.436157,312.568207 
	C396.852600,314.841003 396.424591,317.149536 394.802002,319.052765 
	C392.374237,321.900452 389.408203,321.737061 386.215942,320.236145 
	C382.697083,318.581604 378.783173,318.657867 375.033997,318.011719 
	C373.789642,317.797241 372.663055,317.787872 372.046082,319.085175 
	C371.345825,320.557770 372.562103,321.203522 373.459625,321.861053 
	C380.032349,326.676178 386.633545,331.452301 393.218353,336.251007 
	C394.813599,337.413605 396.350830,338.049377 398.152954,336.532013 
	C401.679871,333.562500 405.918427,332.133057 410.331757,331.105835 
	C412.342987,330.637726 414.041138,329.852539 414.539062,327.474457 
	C417.261993,314.469818 420.052521,301.479370 422.811523,288.482269 
	C423.170776,286.789948 423.138794,285.466949 421.366852,284.211792 
	C413.280548,278.483795 413.335114,278.410217 404.952942,283.469543 
	C403.956360,284.071075 402.931946,284.626465 401.932861,285.223999 
	C393.797607,290.089600 385.765411,295.139282 377.492432,299.757874 
	C372.966156,302.284790 375.344879,305.877594 375.534088,308.997314 
	C375.712158,311.932861 378.518921,311.578949 380.628143,311.677704 
	C382.603333,311.770172 384.641296,312.080048 387.177399,310.422852 
M321.463409,468.142822 
	C329.407623,487.540955 337.343414,506.942535 345.310242,526.331360 
	C346.027893,528.077942 346.208466,530.380554 349.069794,530.191772 
	C351.463837,530.033936 352.533997,528.606934 353.254486,526.561523 
	C357.675690,514.010315 362.147736,501.476959 366.556793,488.921478 
	C367.175446,487.159790 367.420349,485.537964 365.407196,484.125183 
	C351.239319,474.182678 337.123840,464.164795 323.056580,454.080383 
	C321.167877,452.726379 319.862976,453.121002 318.180908,454.320496 
	C316.313049,455.652435 316.811951,457.109619 317.479156,458.696442 
	C318.704742,461.611176 319.954346,464.515839 321.463409,468.142822 
M629.588623,551.845825 
	C627.776123,549.037231 627.498962,546.196472 629.804077,543.570740 
	C632.118347,540.934570 634.849609,541.325073 638.015686,542.222412 
	C642.509521,543.496277 647.197876,544.369080 653.399109,543.072693 
	C644.990295,536.912231 637.673279,531.531311 630.330200,526.186218 
	C628.497070,524.851807 627.183899,526.266296 625.936035,527.291077 
	C622.894226,529.789124 619.399292,531.525513 615.582764,531.926208 
	C612.039856,532.298157 610.844666,534.084595 610.189087,537.211670 
	C607.972107,547.786926 605.570801,558.323486 603.246155,568.876221 
	C601.222595,578.061768 601.298828,577.958984 608.783142,583.202759 
	C610.927429,584.705078 612.547729,584.849487 614.590515,583.373962 
	C624.736084,576.045654 635.720032,570.051575 646.584045,563.927002 
	C651.633179,561.080566 649.969604,557.269409 649.429749,553.675659 
	C648.887878,550.067993 645.463501,551.654602 643.217224,551.360535 
	C641.224792,551.099731 639.269775,551.382568 637.498535,552.607117 
	C635.036072,554.309631 632.519592,554.233276 629.588623,551.845825 
M673.763550,474.311646 
	C669.245667,477.432190 664.717468,480.537994 660.215820,483.681763 
	C658.750549,484.705078 656.949341,485.518829 657.812866,487.966309 
	C662.515076,501.293640 667.166992,514.638733 671.839355,527.976501 
	C672.454468,529.732422 673.575195,530.711609 675.567078,530.615356 
	C677.367188,530.528320 678.118225,529.466675 678.733704,527.949707 
	C687.988708,505.140167 697.294556,482.351257 706.535461,459.536041 
	C707.188477,457.923706 708.145020,456.164886 706.129639,454.576569 
	C704.088562,452.967987 702.510742,453.821930 700.771362,455.071838 
	C691.988953,461.382538 683.171997,467.645233 673.763550,474.311646 
M418.329407,556.002380 
	C416.887939,549.683777 415.331573,543.388184 414.055817,537.036316 
	C413.461060,534.074829 412.438477,532.309448 409.024597,532.075623 
	C405.505981,531.834473 402.163391,530.372192 399.578125,527.920105 
	C397.323151,525.781311 395.593781,525.778137 393.142487,527.659363 
	C387.997498,531.608032 382.586212,535.207886 377.357300,539.050354 
	C375.989655,540.055420 373.961731,540.630554 373.925995,543.010742 
	C375.979767,544.304626 378.109039,543.546448 380.183533,543.314331 
	C383.486542,542.944763 386.772400,542.299255 390.082397,542.153076 
	C392.741821,542.035583 395.055176,543.256287 395.973083,545.929443 
	C396.784698,548.292908 396.366669,550.626587 394.184662,552.186096 
	C391.904388,553.815796 389.534790,553.763977 387.274750,552.015625 
	C387.011963,551.812317 386.795135,551.543274 386.517761,551.366150 
	C383.764679,549.608215 377.254059,550.090210 375.827362,552.146423 
	C373.742737,555.150879 375.313599,561.496460 378.669189,563.566833 
	C389.290375,570.120117 399.943054,576.623108 410.513947,583.256409 
	C412.356506,584.412598 413.688568,584.594666 415.339111,583.024475 
	C416.525421,581.895935 417.929535,580.830078 419.433899,580.236755 
	C422.607483,578.985046 423.083801,576.831421 422.368988,573.839722 
	C421.017303,568.183167 419.809845,562.492188 418.329407,556.002380 
M469.857086,363.261505 
	C471.166992,361.908112 472.741913,360.827728 474.575745,360.625214 
	C479.100647,360.125488 481.425049,357.128845 483.432190,353.531372 
	C487.649719,345.972076 491.969543,338.469910 496.220459,330.929077 
	C497.398834,328.838715 499.243622,326.998901 496.523621,324.388519 
	C494.101929,322.064453 492.262390,320.979858 488.781433,322.633209 
	C471.946106,330.629333 454.981995,338.355621 438.021698,346.085754 
	C435.692078,347.147583 434.120819,348.242706 434.294220,351.173706 
	C434.464081,354.044617 436.461029,354.695251 438.513184,355.365997 
	C447.209137,358.208221 455.923431,360.994415 464.634644,363.789886 
	C466.196350,364.291046 467.775665,365.130096 469.857086,363.261505 
M495.579041,518.986389 
	C496.787903,521.169800 498.176453,523.274719 499.172058,525.551392 
	C502.163055,532.390869 506.063629,537.191833 514.779114,535.759583 
	C517.815430,535.260559 519.987122,535.021362 521.566833,532.098633 
	C526.312195,523.318726 531.084351,514.539917 536.257141,506.009918 
	C538.831909,501.764069 535.314758,499.606689 534.070679,496.638733 
	C532.864197,493.760468 530.519653,494.829193 528.487610,495.322937 
	C517.787231,497.922760 507.068298,498.327179 496.432617,495.223236 
	C492.814087,494.167236 491.253418,496.386078 489.412659,498.512329 
	C487.556702,500.656036 486.440033,502.918640 488.086731,505.752533 
	C490.510010,509.923004 492.858826,514.136780 495.579041,518.986389 
M536.479187,346.071503 
	C540.328125,352.325256 542.231201,360.555542 551.766602,361.042297 
	C552.341614,361.071655 552.949097,361.652496 553.431580,362.096191 
	C555.231384,363.751099 557.143738,363.827057 559.437317,363.103882 
	C568.640869,360.201874 577.895691,357.463135 587.123474,354.637390 
	C588.893005,354.095520 590.571411,353.525940 590.686523,351.108032 
	C590.801086,348.700958 589.650757,347.520386 587.613159,346.579407 
	C570.234497,338.553650 552.854004,330.530182 535.558228,322.328430 
	C532.470886,320.864380 530.768860,321.962769 528.633545,323.992950 
	C526.340088,326.173523 526.462097,328.118744 527.878418,330.584076 
	C530.697693,335.491547 533.388550,340.472809 536.479187,346.071503 
M458.000519,528.477844 
	C468.293823,533.530029 478.620331,538.516479 488.857208,543.680542 
	C491.425598,544.976196 493.113586,544.446838 494.966736,542.472534 
	C496.811218,540.507507 498.044281,538.893127 496.339111,536.021729 
	C491.247040,527.447021 486.456085,518.694275 481.458099,510.062775 
	C478.416962,504.810760 471.503387,505.582336 467.670837,501.467072 
	C467.476257,501.258148 466.716034,501.529907 466.233948,501.641510 
	C456.351532,503.929688 446.620300,506.744110 437.006226,509.978607 
	C434.886780,510.691711 433.611298,511.948914 433.423187,514.229065 
	C433.222534,516.661255 435.162140,517.212708 436.759125,518.003723 
	C443.610535,521.397400 450.481781,524.750916 458.000519,528.477844 
M524.765320,340.661499 
	C522.084351,334.196869 518.673218,328.839539 510.240021,330.956604 
	C509.794403,331.068512 509.241455,330.882996 508.769135,330.736847 
	C506.226227,329.950043 504.753448,331.072845 503.550995,333.266479 
	C498.589020,342.318573 493.640686,351.382080 488.448486,360.302368 
	C486.078186,364.374573 488.974365,366.811737 490.610840,369.744873 
	C492.197510,372.588745 494.465424,371.510101 496.730713,370.916656 
	C506.885773,368.256439 517.044006,367.633514 527.300537,370.578644 
	C529.405884,371.183197 532.128845,373.322479 533.891174,369.926392 
	C535.573059,366.685303 538.351929,363.821136 535.543335,359.501862 
	C531.738770,353.650818 528.572754,347.384644 524.765320,340.661499 
M529.119141,542.266357 
	C530.970215,544.797363 533.090149,544.497192 535.666016,543.264526 
	C553.076904,534.932678 570.150391,525.896912 587.867371,518.203735 
	C589.653320,517.428223 590.935974,516.376038 590.863525,514.116638 
	C590.787781,511.753845 589.230225,511.006226 587.406860,510.482391 
	C579.898865,508.325317 572.354675,506.290405 564.873779,504.044067 
	C559.957031,502.567688 555.122314,500.321381 550.735107,505.247528 
	C550.162354,505.890656 548.900940,506.168823 547.952515,506.182037 
	C545.218933,506.220093 543.685486,507.859344 542.524292,509.973175 
	C537.798401,518.575806 533.097351,527.192444 528.451721,535.838623 
	C527.412537,537.772766 526.558716,539.849792 529.119141,542.266357 
M568.347351,301.170044 
	C577.459961,311.319092 586.554626,321.484375 595.704834,331.599396 
	C597.056335,333.093384 598.131775,335.328033 600.990417,333.637543 
	C603.520142,332.141541 603.649231,330.363647 603.012512,327.770416 
	C600.358337,316.960236 597.761719,306.131531 595.429565,295.248413 
	C594.164490,289.345001 592.744629,283.956024 585.597656,282.722839 
	C584.395874,282.515472 583.351318,281.352051 582.252869,280.603027 
	C581.121948,279.831970 579.987061,279.138245 578.574402,279.892517 
	C572.310364,283.237152 566.048706,286.586212 559.535645,290.067657 
	C561.813660,294.525513 565.276245,297.250519 568.347351,301.170044 
M443.688995,279.007111 
	C440.776245,280.243164 439.139893,283.510681 435.844086,284.072998 
	C432.489563,284.645233 431.304382,286.887787 430.637665,289.888062 
	C427.827393,302.534607 424.926727,315.161102 422.040710,327.790741 
	C421.523773,330.052979 420.472290,332.460449 423.154907,334.035828 
	C426.108368,335.770264 427.393219,333.050842 428.800446,331.453125 
	C440.231842,318.474152 451.574219,305.416779 462.933624,292.374481 
	C463.576477,291.636414 464.312469,290.893158 463.860626,289.291473 
	C457.637543,285.809204 451.255096,281.940674 443.688995,279.007111 
M448.421722,556.059631 
	C441.311646,548.149048 434.179077,540.259033 427.636200,531.859314 
	C426.663239,530.610291 425.787170,528.918335 423.623810,529.921753 
	C421.691650,530.817993 420.914978,532.282104 421.270447,534.348450 
	C421.466766,535.489685 421.724945,536.621216 421.980377,537.751404 
	C424.137482,547.295410 426.541901,556.791870 428.380890,566.396606 
	C429.715393,573.366577 431.706665,578.232666 439.104614,582.224976 
	C445.316010,585.576965 448.850433,584.891174 453.708374,582.018677 
	C455.566864,580.919678 457.513885,579.971069 459.382019,578.887512 
	C464.390594,575.982483 464.579773,575.329224 460.815063,570.667847 
	C456.952850,565.885803 452.870819,561.281311 448.421722,556.059631 
M571.690918,561.187378 
	C568.661926,564.727844 565.691162,568.320374 562.585388,571.792175 
	C560.119812,574.548218 560.135681,576.585510 563.730408,578.305298 
	C567.480591,580.099487 571.274109,581.889282 574.762268,584.127380 
	C582.150269,588.867737 584.683350,579.120239 590.474915,579.087463 
	C592.262695,579.077332 593.225952,577.482666 593.621521,575.677856 
	C596.680969,561.718567 599.764648,547.764709 602.860718,533.813538 
	C603.280090,531.923767 603.508789,530.080994 601.448547,529.022644 
	C599.230408,527.883118 598.567444,530.010559 597.576721,531.156006 
	C589.085632,540.972595 580.641113,550.829468 571.690918,561.187378 
M550.812988,544.379944 
	C546.486328,546.522400 542.194336,548.739136 537.819153,550.777405 
	C535.465881,551.873718 534.582458,553.385681 534.223328,556.081909 
	C533.511047,561.430420 535.367493,564.593506 540.350281,566.453491 
	C543.137756,567.493958 545.760315,569.040833 548.338135,570.561218 
	C551.087219,572.182617 553.058044,571.873840 555.204956,569.311096 
	C566.111267,556.292480 577.194031,543.421875 588.150391,530.444885 
	C589.122253,529.293762 590.921631,528.399902 590.064758,525.467834 
	C577.099731,531.728271 564.302856,537.907532 550.812988,544.379944 
M457.639954,554.876648 
	C459.033844,556.529785 460.455261,558.160522 461.817230,559.839539 
	C472.524841,573.039185 472.521393,573.042053 487.248718,564.672424 
	C488.250763,564.102905 489.407593,563.692017 489.875671,562.505981 
	C491.548645,558.266602 488.863831,551.540466 484.588470,549.643494 
	C468.771149,542.625427 453.181854,535.142761 437.877930,527.063293 
	C436.179657,526.166748 434.344879,525.528687 432.573425,524.770691 
	C432.377350,525.013916 432.181274,525.257080 431.985199,525.500305 
	C440.375153,535.119385 448.765137,544.738464 457.639954,554.876648 
M443.450348,326.931732 
	C440.660431,330.669830 436.727203,333.563202 434.734772,337.999084 
	C436.580566,338.991730 437.692749,337.932007 438.821442,337.414642 
	C454.076324,330.422363 469.262299,323.277435 484.577393,316.420685 
	C488.454834,314.684723 489.816742,312.437866 489.831085,308.123199 
	C489.845551,303.766266 488.454926,301.338379 484.543030,299.769257 
	C481.782166,298.661835 479.059692,297.280792 476.622894,295.586334 
	C473.265717,293.251923 471.145935,294.160431 468.716766,297.102325 
	C460.571320,306.967010 452.195007,316.641052 443.450348,326.931732 
M564.499512,259.088196 
	C555.168091,254.744415 545.789001,250.498825 536.533630,245.998642 
	C533.657837,244.600372 531.751343,244.233887 529.294434,247.047684 
	C526.730042,249.984604 528.195496,251.803146 529.896484,253.892502 
	C537.235474,262.906891 544.677979,271.837921 551.934570,280.917755 
	C553.994995,283.495880 556.010681,283.829468 558.781677,282.291229 
	C562.990112,279.955139 567.302368,277.806915 571.547852,275.536499 
	C573.748779,274.359497 576.226013,273.279144 575.548645,270.039124 
	C574.899475,266.933838 575.436462,263.225098 571.096802,262.017151 
	C569.043945,261.445709 567.157776,260.275665 564.499512,259.088196 
M566.252808,328.161499 
	C573.898987,331.477509 581.089233,335.874573 589.225281,338.743103 
	C589.655762,335.686127 587.876465,334.673615 586.732910,333.363190 
	C578.311829,323.713226 569.749756,314.184387 561.431641,304.446930 
	C551.133850,292.392059 551.280701,292.422791 537.485046,301.062714 
	C534.257751,303.083893 534.350342,305.625916 534.413452,308.723694 
	C534.476807,311.835419 535.210510,313.976654 538.362915,315.359619 
	C547.498718,319.367340 556.507019,323.665741 566.252808,328.161499 
M467.866364,282.475677 
	C469.711487,283.092957 471.129944,282.386169 472.277588,280.989349 
	C479.998657,271.592010 487.676971,262.159302 495.443634,252.799896 
	C497.391754,250.452286 495.831665,248.914444 494.647552,247.087402 
	C493.426636,245.203644 492.178589,244.082016 489.759369,245.191910 
	C477.194336,250.956558 464.609863,256.679230 452.004761,262.355743 
	C448.392822,263.982330 449.457001,267.410431 448.766235,270.160828 
	C448.071442,272.927521 450.434845,273.509521 452.096100,274.395935 
	C457.091461,277.061432 462.156006,279.597168 467.866364,282.475677 
M382.820160,368.303864 
	C385.342407,366.390106 387.858124,364.467651 390.389526,362.566071 
	C391.776062,361.524445 393.067749,360.346649 392.603851,358.438385 
	C391.682709,354.649811 391.454132,350.888519 392.345459,347.065735 
	C392.712952,345.489685 391.582397,344.602966 390.503296,343.802338 
	C383.281219,338.443909 375.973175,333.197906 368.847015,327.715332 
	C365.987915,325.515717 364.026611,327.054535 361.689850,328.454742 
	C359.222809,329.933044 359.536163,331.764618 360.296539,334.012756 
	C364.031006,345.054321 367.669495,356.128326 371.368164,367.182068 
	C372.139954,369.488617 373.022736,371.757996 373.882568,374.122009 
	C377.460754,372.848480 379.639160,370.459900 382.820160,368.303864 
M653.025024,329.605072 
	C648.468872,332.967468 644.038025,336.519470 639.320190,339.637177 
	C634.887878,342.566254 631.559143,345.609894 633.185303,351.668427 
	C633.661865,353.444214 632.844788,355.589966 632.522644,357.550049 
	C632.270569,359.084045 632.070007,360.642151 633.375793,361.737640 
	C638.777649,366.269592 644.382080,370.519073 650.712097,374.432373 
	C655.183105,361.190063 659.438354,348.769348 663.532898,336.295868 
	C664.291687,333.984161 666.013428,331.504517 662.618835,329.274963 
	C659.403625,327.163208 656.651794,325.709564 653.025024,329.605072 
M666.808594,423.887756 
	C660.735229,422.196136 654.651672,420.539795 648.593933,418.793945 
	C646.440063,418.173187 644.973511,418.328613 643.650391,420.577026 
	C639.313538,427.946411 638.156372,435.241028 642.639709,443.036011 
	C643.848145,445.136932 644.953064,445.947021 647.301697,445.398987 
	C661.192383,442.157471 675.098328,438.981171 689.002502,435.797516 
	C690.840759,435.376587 692.766846,434.991669 692.705139,432.566193 
	C692.643921,430.159943 690.568726,429.836182 688.838623,429.394623 
	C681.768494,427.590210 674.678589,425.863190 666.808594,423.887756 
M337.845123,455.621002 
	C348.383698,463.030212 358.922272,470.439423 370.126709,478.316772 
	C373.239441,469.220551 375.992737,461.174683 378.908508,452.654053 
	C362.866699,448.077362 347.180878,446.045227 331.940826,442.103912 
	C329.563995,441.489258 328.861115,443.568481 327.893677,445.057800 
	C326.639069,446.989197 327.911072,448.161530 329.283783,449.213287 
	C331.923187,451.235687 334.599304,453.210266 337.845123,455.621002 
M390.601227,520.102783 
	C391.129517,519.480530 392.166809,518.802002 392.105225,518.244873 
	C391.629700,513.942688 391.845062,509.700867 392.530884,505.440399 
	C392.634583,504.796051 392.037689,503.784851 391.460693,503.324524 
	C386.059967,499.015350 380.592834,494.789368 375.151550,490.544495 
	C374.342316,491.409424 373.848145,491.706787 373.704529,492.124634 
	C369.500610,504.355591 365.455292,516.643311 360.444061,528.580750 
	C359.612396,530.561951 359.980927,532.154724 362.030609,533.120422 
	C364.649139,534.354126 366.624207,537.756165 370.344360,534.914917 
	C376.803558,529.981873 383.472321,525.323181 390.601227,520.102783 
M336.114349,435.408722 
	C349.924469,438.308319 363.757263,441.106445 377.527740,444.183411 
	C380.721161,444.896973 381.632874,443.603485 383.140869,441.124908 
	C387.374023,434.167206 384.500183,428.147217 381.795044,421.797516 
	C380.415283,418.558960 378.960999,417.663544 375.422729,418.746063 
	C362.246094,422.777435 348.946686,426.399963 335.457886,429.271484 
	C333.682617,429.649384 331.550018,429.655365 331.470551,432.139832 
	C331.387817,434.726227 333.753937,434.548828 336.114349,435.408722 
M635.555786,520.801636 
	C641.925049,525.340271 648.370300,529.777344 654.632690,534.458923 
	C657.929321,536.923340 660.064392,534.709229 662.671143,533.281128 
	C665.445435,531.761230 664.566650,529.818176 663.834290,527.752808 
	C659.832397,516.467041 655.836060,505.179291 651.805237,493.903870 
	C651.375854,492.702820 651.168030,491.265594 649.419983,490.745819 
	C645.226929,493.275909 641.548523,496.639557 637.793274,499.906525 
	C633.031677,504.048981 631.551758,514.781006 635.555786,520.801636 
M658.024353,476.242981 
	C670.276184,467.670166 682.544556,459.120758 694.759888,450.496307 
	C696.372986,449.357422 698.978760,448.567230 697.520569,445.564514 
	C696.150391,442.742981 694.138489,441.844513 691.022766,442.666321 
	C681.555542,445.163361 672.033875,447.452942 662.551758,449.894562 
	C657.441711,451.210358 652.137146,451.818237 646.650757,454.052063 
	C649.158508,461.569611 651.616272,468.929291 654.067810,476.291046 
	C654.971191,479.004059 656.293884,477.093750 658.024353,476.242981 
M348.764130,418.219208 
	C358.262604,415.903625 367.740479,413.518646 377.606750,410.007629 
	C375.033905,402.218506 372.577515,394.781952 369.826874,386.454590 
	C355.680115,396.580780 342.321686,406.128601 328.984283,415.705719 
	C327.122070,417.042938 327.356110,418.716095 328.356384,420.546570 
	C329.313080,422.297333 330.563416,422.757721 332.481262,422.259064 
	C337.623718,420.921997 342.799896,419.714691 348.764130,418.219208 
M656.071533,387.315277 
	C653.581543,387.251862 653.885132,389.501831 653.395935,390.841095 
	C651.684937,395.525116 650.418152,400.377014 648.594849,405.012665 
	C647.065063,408.902100 648.120483,410.633423 652.116150,411.661682 
	C664.677917,414.894257 677.189392,418.329041 689.672119,421.856445 
	C692.696594,422.711121 694.984192,423.149017 696.669373,419.633362 
	C698.410828,416.000061 695.394226,415.257324 693.596680,413.962982 
	C681.309021,405.115021 668.941956,396.377350 656.071533,387.315277 
M388.578583,419.917999 
	C390.371765,421.299011 390.399231,419.561157 390.691010,418.634735 
	C395.239441,404.194122 399.711426,389.729309 404.302429,375.302307 
	C405.459503,371.666290 402.400269,370.840149 400.648621,369.047211 
	C398.922699,367.280670 397.254395,367.346313 395.356689,368.721130 
	C390.098846,372.530151 384.839783,376.339417 379.512695,380.050171 
	C377.427032,381.503052 376.779266,383.274933 377.533875,385.638611 
	C381.124451,396.885101 384.715271,408.131500 388.578583,419.917999 
M629.558960,404.028931 
	C631.237000,409.294678 632.914978,414.560425 634.683716,420.110931 
	C635.512634,419.386597 635.866089,419.224823 635.973877,418.962250 
	C640.581177,407.742554 643.379639,395.922668 647.387756,384.502899 
	C648.150330,382.330048 646.807617,381.117523 645.249634,379.981567 
	C640.421814,376.461304 635.496643,373.058655 630.848511,369.313477 
	C627.783813,366.844208 625.622925,368.088409 622.924377,369.892365 
	C620.107605,371.775269 620.043335,373.791901 620.993347,376.677521 
	C623.897339,385.498535 626.578369,394.392914 629.558960,404.028931 
M529.929260,611.390686 
	C528.882202,612.919678 527.707642,614.426392 529.307922,616.297607 
	C531.013184,618.291565 532.873779,617.465576 534.731018,616.607910 
	C537.143738,615.493774 539.523987,614.305725 541.961487,613.249573 
	C551.716125,609.022888 561.459045,604.766785 571.271484,600.678101 
	C573.917358,599.575562 575.149841,597.789124 575.518494,595.102844 
	C575.886780,592.419128 573.823547,591.776794 572.080994,590.880554 
	C567.648560,588.600769 563.110962,586.509338 558.783081,584.047913 
	C555.690918,582.289246 553.708740,582.384521 551.295959,585.460999 
	C544.531250,594.086731 537.354553,602.389282 529.929260,611.390686 
M637.062927,490.535217 
	C639.349670,488.880981 641.520813,487.027130 643.950500,485.619720 
	C647.513550,483.555786 647.888062,481.032959 646.538696,477.296387 
	C643.270264,468.246063 640.441711,459.037720 637.330200,449.929077 
	C636.775452,448.305115 636.714172,446.288849 634.792114,445.278351 
	C633.051453,446.681549 632.988770,448.803894 632.413025,450.621094 
	C628.706604,462.320801 625.367126,474.145050 621.333862,485.728821 
	C619.711853,490.387207 621.392212,492.555664 624.752319,495.195099 
	C628.464661,498.111176 630.466553,495.488861 632.922119,493.677124 
	C634.124268,492.790161 635.291626,491.855988 637.062927,490.535217 
M516.302795,605.793091 
	C516.196167,607.908447 517.157288,609.218750 519.191956,609.857666 
	C521.491577,610.579834 522.577759,608.937195 523.689026,607.557007 
	C530.661255,598.898071 537.593323,590.206604 544.493774,581.490295 
	C545.273438,580.505432 546.370544,579.511963 545.670410,577.635925 
	C542.999268,576.162048 540.068115,574.627197 537.218628,572.953247 
	C532.923889,570.430237 528.829529,568.087952 524.756531,573.529358 
	C523.782776,574.830322 521.661987,575.473267 519.939209,575.968567 
	C516.987366,576.817139 516.184814,578.661072 516.233154,581.531799 
	C516.364380,589.330933 516.286804,597.133545 516.302795,605.793091 
M483.983551,613.419128 
	C485.939545,614.343445 487.871948,615.322693 489.858978,616.174622 
	C491.431732,616.849121 493.037964,618.382324 494.661957,616.111145 
	C496.053284,614.165405 495.126984,612.677490 493.914520,611.198364 
	C486.845276,602.574219 479.699493,594.011475 472.736847,585.302246 
	C470.629272,582.666016 468.627136,582.591125 465.874451,584.106995 
	C461.649506,586.433533 457.283112,588.503540 452.972351,590.673645 
	C451.024536,591.654114 449.146637,592.480835 449.230408,595.316223 
	C449.312714,598.101501 451.111145,598.935181 453.145996,599.825134 
	C463.208466,604.225769 473.260284,608.650818 483.983551,613.419128 
M393.607178,494.853455 
	C395.355316,496.480072 397.031372,497.287445 399.223267,495.314484 
	C401.667450,493.114441 404.713715,491.580048 403.282318,487.260223 
	C400.201416,477.962219 397.485931,468.543610 394.448273,459.230652 
	C393.067413,454.997192 392.384460,450.447815 389.271301,445.787750 
	C385.277344,457.663513 381.640411,468.689148 377.831604,479.655121 
	C376.868866,482.427032 378.430725,483.626251 380.224854,484.947876 
	C384.503754,488.100006 388.769165,491.270386 393.607178,494.853455 
M516.311035,278.375580 
	C515.479004,283.774414 516.941528,287.643433 522.788391,289.223480 
	C525.161926,289.864960 527.052124,291.726685 528.707458,293.651093 
	C529.684631,294.787140 530.725891,296.015747 532.500793,295.139069 
	C537.202881,292.816559 542.058777,290.757690 546.501404,287.701263 
	C545.950073,286.492401 545.745789,285.646484 545.255005,285.028046 
	C537.616211,275.402740 529.941284,265.806061 522.271851,256.205109 
	C521.264404,254.944000 520.177246,254.233063 518.412109,254.975616 
	C516.748230,255.675629 516.233765,256.821930 516.243896,258.471893 
	C516.282593,264.783844 516.289185,271.095947 516.311035,278.375580 
M507.184235,255.953018 
	C504.604736,253.599701 502.883392,254.829895 501.078247,257.149200 
	C496.177216,263.446228 491.030334,269.552795 486.167480,275.878357 
	C483.370392,279.516815 479.727142,282.539886 477.590820,286.992340 
	C481.968933,290.145416 486.571014,292.399139 491.109009,294.768494 
	C492.921448,295.714783 494.223969,295.170227 495.461121,293.728607 
	C497.906464,290.879089 500.994049,288.944641 504.572205,287.872345 
	C506.799072,287.204926 507.901733,285.884460 507.870972,283.544067 
	C507.753204,274.571411 507.665619,265.598328 507.184235,255.953018 
M506.577057,608.683350 
	C508.302765,607.306335 507.804535,605.345398 507.824554,603.579163 
	C507.882996,598.419006 507.552673,593.239136 507.893799,588.101440 
	C508.317474,581.721008 506.892548,577.999817 500.402924,574.205505 
	C494.012390,570.469055 489.993958,571.390198 484.833801,574.404541 
	C483.973145,574.907288 483.080139,575.369202 482.163483,575.759216 
	C478.471893,577.330139 477.930145,579.518982 480.538513,582.654541 
	C487.351135,590.844055 494.093048,599.092529 500.839630,607.336670 
	C502.200653,608.999817 503.614838,610.284973 506.577057,608.683350 
M476.943359,366.459900 
	C474.968384,367.471100 473.803223,368.924438 474.717255,371.217499 
	C475.197754,372.422913 476.342499,372.800018 477.586060,372.638947 
	C479.231293,372.425873 480.334778,371.474121 480.593872,369.837708 
	C480.943207,367.631409 479.983856,366.365509 476.943359,366.459900 
M547.191284,492.760986 
	C544.813416,492.881989 542.113403,492.939880 542.849915,496.384460 
	C543.209839,498.067963 544.633728,500.151031 546.794678,499.021210 
	C549.252686,497.736023 549.435486,495.418976 547.191284,492.760986 
M545.161865,372.141632 
	C547.410095,373.050232 548.555298,371.818329 549.213196,369.927704 
	C549.719727,368.472473 549.013000,367.365479 547.728455,366.707397 
	C546.619080,366.139038 545.462341,366.295593 544.565613,367.174622 
	C543.026672,368.683197 542.878723,370.257141 545.161865,372.141632 
M476.351349,493.411346 
	C474.768707,495.235474 474.562439,497.107697 476.907349,498.253387 
	C478.472504,499.018097 480.024719,497.866364 480.353882,496.367584 
	C480.921722,493.781982 479.340088,492.842224 476.351349,493.411346 
z"/>
<path fill="#000000" opacity="1.000000" stroke="none" 
	d="
M548.479126,723.204102 
	C579.583008,711.433411 608.136780,735.484924 610.398682,762.924072 
	C612.699524,790.835754 594.654053,813.473511 567.138611,816.699646 
	C559.356323,817.612000 551.929199,815.811035 544.935181,812.285339 
	C543.352234,811.487366 541.762512,810.702942 539.289001,809.470337 
	C539.289001,816.871521 539.297852,823.468811 539.286560,830.066101 
	C539.275696,836.394104 539.366760,842.725464 539.189209,849.049133 
	C538.983032,856.394775 534.012512,861.798767 527.793579,861.751770 
	C521.742432,861.706055 516.728882,856.030518 516.718750,848.700012 
	C516.665833,810.398438 516.689453,772.096680 516.751038,733.795105 
	C516.761719,727.171936 519.754395,722.425903 524.410950,720.996643 
	C529.430359,719.456055 534.205139,721.328918 538.269531,726.470154 
	C538.679382,726.988647 538.937012,727.627380 539.171326,728.043335 
	C542.556091,726.273804 545.340027,724.818359 548.479126,723.204102 
M562.720581,743.175354 
	C546.605286,744.441528 539.080750,756.654541 539.630981,769.914490 
	C540.266541,785.230957 550.571716,794.479492 565.144287,793.950989 
	C578.440796,793.468689 588.638489,782.170044 588.633850,767.755432 
	C588.629761,755.215515 576.728027,742.045593 562.720581,743.175354 
z"/>
<path fill="#000000" opacity="1.000000" stroke="none" 
	d="
M695.748901,730.183594 
	C707.463196,740.316772 714.105286,752.400696 713.376282,767.966003 
	C713.053894,774.851257 711.340271,776.844421 704.293640,776.899841 
	C686.466003,777.040161 668.637207,777.023499 650.809082,777.117798 
	C648.860352,777.128052 646.805847,776.672729 644.998596,777.847290 
	C645.598816,786.233032 655.287842,794.139709 665.569763,794.638855 
	C672.851746,794.992371 678.795837,791.991516 684.069397,787.246338 
	C688.775452,783.011719 693.431641,783.547180 699.264709,788.873901 
	C703.834045,793.046570 704.426331,796.944824 700.173340,801.995361 
	C691.464355,812.337280 679.733093,816.852539 666.555237,816.889343 
	C641.868225,816.958313 621.984619,797.568054 619.899353,771.733215 
	C618.381287,752.925049 630.057068,726.342651 658.290527,721.082214 
	C671.946228,718.537842 684.409485,721.421570 695.748901,730.183594 
M670.498840,758.850769 
	C676.366089,758.850769 682.233276,758.850769 688.346069,758.850769 
	C685.725769,749.104675 674.993896,741.932922 665.442749,742.664062 
	C654.788879,743.479614 645.883362,750.346863 645.134521,758.854004 
	C653.280640,758.854004 661.389893,758.854004 670.498840,758.850769 
z"/>
<path fill="#000000" opacity="1.000000" stroke="none" 
	d="
M472.025085,721.604370 
	C494.992554,728.721924 509.651001,750.428040 507.237396,773.219604 
	C504.790070,796.329590 486.905182,814.910095 463.554565,816.718323 
	C444.363770,818.204285 429.749908,808.906799 420.006378,792.775452 
	C403.072296,764.739441 418.857941,728.570923 450.841156,721.394531 
	C457.714722,719.852234 464.699066,720.003113 472.025085,721.604370 
M440.054565,782.376221 
	C447.583099,793.333069 459.058319,797.111145 470.003723,792.236694 
	C480.621399,787.508118 486.921295,774.083435 483.942810,762.533264 
	C480.772308,750.238403 470.099609,742.155884 458.311554,743.122498 
	C440.389160,744.592102 430.694763,764.675842 440.054565,782.376221 
z"/>
<path fill="#000000" opacity="1.000000" stroke="none" 
	d="
M286.952484,760.795532 
	C300.628784,765.837402 307.378876,774.829224 307.093170,787.246948 
	C306.816864,799.256897 298.228790,810.359497 285.568604,814.571289 
	C270.845154,819.469543 256.912872,817.281433 244.039764,808.849731 
	C240.023346,806.218933 235.352203,802.839539 236.203506,797.533813 
	C237.170181,791.509033 243.429642,789.714172 248.143356,787.114258 
	C250.469315,785.831238 252.542374,787.952820 254.440765,789.227051 
	C259.756073,792.794739 265.184265,796.000305 271.923889,795.648865 
	C273.083313,795.588440 274.253418,795.506104 275.390625,795.288025 
	C279.929077,794.417908 284.194427,792.532349 284.414795,787.428894 
	C284.629669,782.452454 280.110260,781.223450 276.201660,780.166443 
	C270.261719,778.560242 264.174561,777.436584 258.331451,775.546692 
	C244.473618,771.064453 237.025360,761.900391 236.920044,749.823303 
	C236.818817,738.213623 245.571747,726.279053 258.005981,722.163940 
	C271.091461,717.833252 284.041840,718.252502 295.858093,726.145996 
	C303.162109,731.025208 303.436768,737.718262 297.165741,743.719177 
	C292.964905,747.739197 290.140900,747.949097 285.250793,744.751099 
	C280.600800,741.710266 275.762299,739.083801 269.916504,739.830627 
	C264.471863,740.526184 260.708191,743.670105 260.403412,747.855957 
	C260.007538,753.293579 264.169250,755.022400 268.155579,756.208008 
	C274.204010,758.006958 280.428131,759.215149 286.952484,760.795532 
z"/>
<path fill="#000000" opacity="1.000000" stroke="none" 
	d="
M324.497894,792.352600 
	C308.823395,765.728577 323.649323,733.302917 348.125000,723.692993 
	C364.393188,717.305481 384.813995,720.652222 396.409698,732.588440 
	C399.532654,735.803101 401.564606,739.306519 399.584473,743.774292 
	C397.384094,748.738831 393.703888,752.165894 388.203033,753.319702 
	C386.023163,753.777039 384.881104,752.290039 383.562622,751.005371 
	C374.736115,742.405884 363.668945,740.500488 353.891083,745.859863 
	C344.421051,751.050476 339.260071,762.850220 341.507874,774.172180 
	C343.645782,784.940735 352.492676,793.374634 363.412018,794.500122 
	C370.506378,795.231262 376.913635,793.116272 382.229736,788.182007 
	C387.724640,783.081970 390.980469,783.194458 397.080170,788.744568 
	C401.282471,792.568298 401.674622,798.291931 397.717621,803.078918 
	C392.561768,809.316345 385.760529,813.152100 378.015961,815.151855 
	C356.437073,820.723877 336.911987,812.427002 324.497894,792.352600 
z"/>
<path fill="#000000" opacity="1.000000" stroke="none" 
	d="
M785.970215,730.273682 
	C787.423523,740.152832 781.149780,746.488403 771.730591,745.140625 
	C756.084351,742.901917 747.318298,750.520569 747.299927,766.387085 
	C747.285645,778.703552 747.385254,791.021179 747.237427,803.335938 
	C747.164368,809.424683 743.461670,813.997314 738.281799,815.092407 
	C733.397644,816.124878 728.221558,813.516113 725.750977,808.905151 
	C724.586548,806.731812 724.618774,804.430481 724.620605,802.100830 
	C724.638306,779.798096 724.647705,757.495300 724.679016,735.192566 
	C724.690186,727.268555 727.174316,722.919861 732.597961,721.183777 
	C737.789795,719.521973 742.384460,721.569397 746.987793,727.593994 
	C747.286682,727.985229 747.596497,728.368103 748.102234,729.009888 
	C752.677063,726.815674 756.815430,723.726318 761.694885,722.079346 
	C772.359558,718.479858 780.488525,721.050537 785.970215,730.273682 
z"/>
<path fill="#000000" opacity="1.000000" stroke="none" 
	d="
M522.387573,472.753510 
	C497.487091,478.492340 474.752838,462.241302 471.240204,437.316193 
	C468.763031,419.738647 479.121460,400.356293 499.915924,394.332703 
	C518.302124,389.006683 536.739624,395.361572 546.841064,410.859589 
	C556.469299,425.631653 555.368774,446.189301 544.066956,459.328156 
	C538.389343,465.928589 531.244263,470.377319 522.387573,472.753510 
M497.658966,432.989410 
	C504.611969,433.097809 509.812439,430.028595 513.239807,424.081818 
	C516.040894,419.221558 515.376770,412.688660 511.933075,408.650177 
	C508.720276,404.882477 502.669739,403.675201 497.275940,405.797943 
	C493.963715,407.101562 491.190277,409.210724 488.973450,411.974884 
	C482.523621,420.017181 486.611755,430.888763 497.658966,432.989410 
z"/>
</svg>